<?xml version="1.0" encoding="UTF-8"?><svg xmlns="http://www.w3.org/2000/svg" xmlns:xlink="http://www.w3.org/1999/xlink" viewBox="0 0 176.14 140.51"><defs><style>.e{fill:#fff;}.f{isolation:isolate;}.g{fill:#5b51d8;mix-blend-mode:overlay;}.h{fill:url(#d);}</style><linearGradient id="d" x1="41.83" y1="100.42" x2="106.86" y2="99.74" gradientTransform="matrix(1, 0, 0, 1, 0, 0)" gradientUnits="userSpaceOnUse"><stop offset="0" stop-color="#833ab4"/><stop offset="1" stop-color="#f77737"/></linearGradient></defs><g class="f"><g id="a"/><g id="b"><g id="c"><g><path class="e" d="M88.1,58.46c10.97-14.85,21.95-29.7,32.92-44.55C129.96,1.81,142.45-2.67,155.5,1.55c12.68,4.1,20.47,15.13,20.56,29.87,.15,25.63,.05,51.27,.04,76.9,0,16.4-9.33,28.76-23.64,31.41-15.47,2.87-28.46-4.73-34.61-20.26,1.8-8.4,1.8-16.8-3.22-24.02-8.53-12.26-17.67-24.1-26.56-36.12,.04-.3,.05-.59,.03-.89Z"/><path class="e" d="M88.1,58.46c.02,.3,0,.59-.03,.89-7.13,9.55-13.99,19.31-21.45,28.6-7.5,9.33-11.28,19.36-8.38,31.32-5.41,13.56-15.49,21.35-28.45,21.1-12.56-.25-21.83-6.23-27.28-17.7C.55,118.54,0,114.11,0,109.56,.04,83.28,0,56.99,.04,30.71,.06,16.81,7.68,5.95,20.23,1.72c12.73-4.3,25.62-.22,34.03,11.06,10.23,13.73,20.28,27.61,30.42,41.41,1.08,1.47,2.28,2.84,3.43,4.26Z"/><path class="h" d="M58.24,119.27c-2.89-11.97,.88-21.99,8.38-31.32,7.46-9.28,14.32-19.04,21.45-28.6,8.88,12.02,18.02,23.86,26.56,36.12,5.02,7.21,5.03,15.62,3.22,24.02-8.72,17.58-22.97,24.53-39.73,19.36-10.01-3.08-15.99-10.27-19.87-19.58Z"/><path class="g" d="M58.24,119.27c-2.89-11.97,.88-21.99,8.38-31.32,7.46-9.28,14.32-19.04,21.45-28.6,8.88,12.02,18.02,23.86,26.56,36.12,5.02,7.21,5.03,15.62,3.22,24.02-8.72,17.58-22.97,24.53-39.73,19.36-10.01-3.08-15.99-10.27-19.87-19.58Z"/></g></g></g></g></svg>