<svg xmlns="http://www.w3.org/2000/svg" xmlns:xlink="http://www.w3.org/1999/xlink" viewBox="0 0 176.14 140.51"><defs><style>.cls-1{isolation:isolate;}.cls-2{fill:url(#linear-gradient);}.cls-3{fill:url(#linear-gradient-2);}.cls-4{fill:url(#linear-gradient-3);}.cls-5{fill:#5b51d8;mix-blend-mode:overlay;}</style><linearGradient id="linear-gradient" x1="232.51" y1="12.49" x2="103.83" y2="98.95" gradientUnits="userSpaceOnUse"><stop offset="0" stop-color="#e1306c"/><stop offset="0.5" stop-color="#fd1d1d"/><stop offset="1" stop-color="#f77737"/></linearGradient><linearGradient id="linear-gradient-2" x1="85.16" y1="136.19" x2="-41.82" y2="-14.96" gradientUnits="userSpaceOnUse"><stop offset="0" stop-color="#833ab4"/><stop offset="0.5" stop-color="#5b51d8"/><stop offset="1" stop-color="#405de6"/></linearGradient><linearGradient id="linear-gradient-3" x1="41.83" y1="100.42" x2="106.86" y2="99.74" gradientUnits="userSpaceOnUse"><stop offset="0" stop-color="#833ab4"/><stop offset="1" stop-color="#f77737"/></linearGradient></defs><g class="cls-1"><g id="Layer_2" data-name="Layer 2"><g id="Layer_1-2" data-name="Layer 1"><path class="cls-2" d="M88.1,58.46,121,13.91C130,1.81,142.45-2.67,155.5,1.55,168.18,5.66,176,16.68,176.06,31.43c.15,25.63.05,51.26,0,76.9,0,16.4-9.32,28.75-23.64,31.41C137,142.61,124,135,117.85,119.48c1.8-8.39,1.8-16.8-3.22-24C106.09,83.21,97,71.36,88.07,59.35A4.44,4.44,0,0,0,88.1,58.46Z"/><path class="cls-3" d="M88.1,58.46a4.44,4.44,0,0,1,0,.89C81,68.9,74.08,78.66,66.62,87.94s-11.27,19.36-8.38,31.33c-5.41,13.56-15.49,21.34-28.44,21.09-12.56-.25-21.83-6.23-27.29-17.7A29.8,29.8,0,0,1,0,109.56C0,83.28,0,57,0,30.71c0-13.9,7.64-24.76,20.19-29,12.73-4.3,25.62-.22,34,11.06C64.49,26.51,74.53,40.39,84.67,54.19,85.75,55.66,87,57,88.1,58.46Z"/><path class="cls-4" d="M58.24,119.27c-2.89-12,.88-22,8.38-31.33S81,68.9,88.07,59.35c8.89,12,18,23.86,26.56,36.12,5,7.21,5,15.62,3.22,24-8.72,17.58-23,24.53-39.73,19.36C68.1,135.76,62.12,128.57,58.24,119.27Z"/><path class="cls-5" d="M58.24,119.27c-2.89-12,.88-22,8.38-31.33S81,68.9,88.07,59.35c8.89,12,18,23.86,26.56,36.12,5,7.21,5,15.62,3.22,24-8.72,17.58-23,24.53-39.73,19.36C68.1,135.76,62.12,128.57,58.24,119.27Z"/></g></g></g></svg>