<svg xmlns="http://www.w3.org/2000/svg" xmlns:xlink="http://www.w3.org/1999/xlink" viewBox="0 0 352.04 116.3"><defs><style>.cls-1{fill:url(#linear-gradient);}.cls-2{fill:url(#linear-gradient-2);}.cls-3{fill:url(#linear-gradient-3);}.cls-4{fill:url(#linear-gradient-4);}.cls-5{fill:url(#linear-gradient-5);}.cls-6{fill:url(#linear-gradient-6);}.cls-7{fill:url(#linear-gradient-7);}.cls-8{fill:url(#linear-gradient-8);}</style><linearGradient id="linear-gradient" x1="-6.75" y1="6.7" x2="60.65" y2="60.83" gradientUnits="userSpaceOnUse"><stop offset="0" stop-color="#fd1d1d"/><stop offset="1" stop-color="#f56040"/></linearGradient><linearGradient id="linear-gradient-2" x1="52.22" y1="34.7" x2="83.37" y2="62.79" gradientUnits="userSpaceOnUse"><stop offset="0" stop-color="#f56040"/><stop offset="1" stop-color="#f77737"/></linearGradient><linearGradient id="linear-gradient-3" x1="68.43" y1="25" x2="110.81" y2="46.95" gradientUnits="userSpaceOnUse"><stop offset="0" stop-color="#f56040"/><stop offset="1" stop-color="#fcaf45"/></linearGradient><linearGradient id="linear-gradient-4" x1="108.27" y1="50.96" x2="164.24" y2="50.96" gradientUnits="userSpaceOnUse"><stop offset="0" stop-color="#ffdc80"/><stop offset="1" stop-color="#e1306c"/></linearGradient><linearGradient id="linear-gradient-5" x1="150.4" y1="74.75" x2="207.56" y2="74.75" gradientUnits="userSpaceOnUse"><stop offset="0" stop-color="#e1306c"/><stop offset="1" stop-color="#c13584"/></linearGradient><linearGradient id="linear-gradient-6" x1="200.61" y1="51.32" x2="247.56" y2="51.32" gradientUnits="userSpaceOnUse"><stop offset="0" stop-color="#c13584"/><stop offset="1" stop-color="#833ab4"/></linearGradient><linearGradient id="linear-gradient-7" x1="240.58" y1="50.96" x2="296.54" y2="50.96" gradientUnits="userSpaceOnUse"><stop offset="0" stop-color="#833ab4"/><stop offset="1" stop-color="#5b51d8"/></linearGradient><linearGradient id="linear-gradient-8" x1="287.58" y1="50.99" x2="352.04" y2="50.99" gradientUnits="userSpaceOnUse"><stop offset="0" stop-color="#5b51d8"/><stop offset="1" stop-color="#405de6"/></linearGradient></defs><g id="Layer_2" data-name="Layer 2"><g id="Layer_1-2" data-name="Layer 1"><path class="cls-1" d="M60.52,6.16C59.8,9.26,45.79,61.91,44.79,66c-.42,2.55-2.12,5.65.26,8.06-11.76.79-1.91-16.51.79-31.2C31.32,72.35,14,79.26,12.63,43.57,9.62,58.17,3.52,69.83,7,74c-6.17.6-6.62-4.3-4.46-11.21.61-2.43,13.26-50.34,15.36-57.86C7.42,4.3.31,10.61,6.76,18.39-1,19.81-1.74,8.9,2.88,4.72,7.2-.22,17.58,0,18.27,0c5.15-.45,4.93,5.85,3.08,10.61h0C9,73.25,27.19,83.5,53.43,14.25,54.24,8.36,58,4.71,55.13,0,55.13,0,62-.6,60.52,6.16Z"/><path class="cls-2" d="M95.42,52.62c-11.61,28.57-49.63,29.26-36.14-3.5,6.11-12.46,25.28-24.44,29.3-7.37h0C89.85,52,73.21,60.14,62.25,55.38,59.47,63,63.48,70.8,71.11,69.17c6.35-.65,14.66-8,20-18.7C92.43,47.63,96.87,49.82,95.42,52.62ZM64,50.82c9.11,2.58,18.62-.22,19.89-8.31C81.25,31.79,67.75,43.84,64,50.82Z"/><path class="cls-3" d="M115.53,23.37a3,3,0,0,1-.68.65l0,0c-2.25,1.8-8.08,3.59-12.21,2.27-.79,4.33-20.06,60.92-.23,37.24,4-5.93,6.95-10.52,8.24-13.1a2.41,2.41,0,0,1,3.24-1.09c4,3.35-3.4,9.18-5.8,14.31-12.31,18.91-22.06,9-19.53-3.91,2.77-11.16,6.83-25.1,9.49-34.94a19.52,19.52,0,0,0-11.49.72c-2.84,1.33-4.87-3.16-2-4.41a23.75,23.75,0,0,1,14.8-1c.76-5.29,4.33-8.53,1.46-13.18,5.91-.55,6.6,4.6,4.06,11.36h0c-.1.35-.43,1.54-.94,3.34a10.32,10.32,0,0,0,8-1.48C114,18.5,117.06,21.11,115.53,23.37Z"/><path class="cls-4" d="M164,52.57c-6,12-22,33.87-26.82,12.92-12.22,15.7-37.88,9.14-25.63-16.81,4.84-9.84,11.31-14.26,17.93-15.21,10.22-2.28,16.87,15.35,5.6,15.58,5.2-15.74-12-12.46-17.82-.37-12.87,24.06,10.92,28.68,22,4.46,3-13.49,7.81-21.77,4.72-25.44,8.92,1.2,5.67,3.79,1.42,21.36-1,6-6.14,16-1.12,20.2,1.52.74,4.2-1.78,7.15-5.76a152.83,152.83,0,0,0,8.23-13.09C161,47.57,165.4,49.77,164,52.57Z"/><path class="cls-5" d="M207.27,52.63c-4.06,7.75-12.19,19.72-20.55,24.07-.7,2.62-2.65,12.75-7.27,23.07-8.86,19.4-22.91,21.51-28.36,7.45-5-15.38,18.52-26.83,31.41-33.44.15-.57.85-3.1,1.77-6.48-33.72,25.9-35.13-28.29-6-33.9,10.22-2.29,16.87,15.34,5.6,15.58,5.2-15.75-12-12.46-17.82-.37-3.48,5.82-7.67,22.26,4.77,20.43,6.27-.92,11.95-5.4,17.23-16,.86-5.72,6.5-15.91,3.28-19.62,5.92-.56,6.61,4.6,4.06,11.35h0c-.34,1.2-3.51,12.63-6.82,24.9,5.7-3.87,12.55-15.61,14.32-19.24C204.29,47.63,208.72,49.82,207.27,52.63ZM180.79,80.18c-9.57,4.81-28.85,14.92-25,25.79.79,3,2.91,5,5.53,5.23C171.66,112.08,178.77,89.26,180.79,80.18Z"/><path class="cls-6" d="M247.27,52.62c-4,7.9-15.5,25.23-21.84,21.05-9-6.18-4.05-14.46-1.61-24.87-4.29,1.45-9,1-13.59-.81-1.78,2.09-2.9,9.43-7,7.89-3.35-3,1.43-6,2.78-10.28-18.46-16.89,17.32-27.58,6.29-2,5.15,2.26,13.86,1.88,14.44-5.14.33-1.47.73-3.64-.8-5,0,0,6.85-.61,5.38,6.13-.18,4.18-9.85,25.76-3.76,29.74,1.52.75,4.2-1.77,7.15-5.75a154.45,154.45,0,0,0,8.23-13.09C244.27,47.63,248.72,49.83,247.27,52.62ZM209.54,34c-.83-1.67-2.69-1.17-3.48.28-1.09,1.71.2,5.08,2.06,6.7C209.41,37.93,210.19,35.19,209.54,34Z"/><path class="cls-7" d="M296.26,52.57c-6.05,12-22,33.87-26.82,12.92-12.22,15.7-37.89,9.14-25.63-16.81,4.83-9.84,11.3-14.26,17.93-15.21,10.22-2.28,16.86,15.35,5.6,15.58,5.19-15.74-12-12.46-17.83-.37-12.86,24.06,10.93,28.68,22,4.46,3-13.49,7.81-21.77,4.71-25.44,8.92,1.2,5.68,3.79,1.42,21.36-1,6-6.13,16-1.11,20.2,1.52.74,4.2-1.78,7.14-5.76a150.27,150.27,0,0,0,8.23-13.09C293.26,47.57,297.7,49.77,296.26,52.57Z"/><path class="cls-8" d="M351.76,52.66c-4.06,8-15.34,25-21.84,21-5.42-2.11-5.6-8.58-4.59-13.91,1.26-8.26,6.06-13.73,4.14-20-6.86-5.15-13.16,4-14.63,11.9-2.1,10.85-6.85,17.87-3.56,22.42-6.2.62-6.6-4.37-4.46-11.21.18-3.16,6.7-19,4.61-23.12C298.36,32.05,295.51,58.07,293,66c-.42,2.55-2.11,5.65.26,8.06-6.18.61-6.61-4.35-4.45-11.21.12-.53,5.33-20.82,7.11-27,.5-2.53,2.31-5.57,0-8.06.93-.4,7.61.61,5.1,7.35,4-2.61,12.75-2.28,14.83,2.61C319.08,33,330,31.5,333.5,37.05c3.91,7.63-1.7,13.92-2.94,22.52-2.26,9,1.73,14.37,8.62,4a154.45,154.45,0,0,0,8.23-13.09C348.76,47.65,353.19,49.85,351.76,52.66Z"/></g></g></svg>